<svg width="915" height="991" viewBox="0 0 915 991" fill="none" xmlns="http://www.w3.org/2000/svg">
<circle cx="448.5" cy="25" r="25" fill="#4472C5"/>
<path d="M448.5 198L474.481 153H422.519L448.5 198ZM448.5 31H444V157.5H448.5H453V31H448.5Z" fill="#4472C5"/>
<path d="M448.5 570L474.481 525H422.519L448.5 570ZM448.5 403H444V529.5H448.5H453V403H448.5Z" fill="#4472C5"/>
<path d="M592.567 401.057H277.434L124.847 302L277.434 202.943H592.567L745.154 302L592.567 401.057Z" stroke="#4472C5" stroke-width="8"/>
<path d="M322.31 291H330.22V326H322.31V291ZM326.3 285.68C324.853 285.68 323.64 285.19 322.66 284.21C321.68 283.23 321.19 282.063 321.19 280.71C321.19 279.263 321.68 278.05 322.66 277.07C323.64 276.09 324.853 275.6 326.3 275.6C327.7 275.6 328.89 276.09 329.87 277.07C330.85 278.05 331.34 279.263 331.34 280.71C331.34 282.063 330.85 283.23 329.87 284.21C328.89 285.19 327.7 285.68 326.3 285.68ZM364.982 326.49C363.488 326.49 362.228 326 361.202 325.02C360.222 323.993 359.732 322.733 359.732 321.24C359.732 319.793 360.222 318.58 361.202 317.6C362.228 316.573 363.488 316.06 364.982 316.06C366.428 316.06 367.665 316.573 368.692 317.6C369.718 318.58 370.232 319.793 370.232 321.24C370.232 322.733 369.718 323.993 368.692 325.02C367.665 326 366.428 326.49 364.982 326.49ZM364.982 297.16C363.488 297.16 362.228 296.67 361.202 295.69C360.222 294.663 359.732 293.403 359.732 291.91C359.732 290.463 360.222 289.25 361.202 288.27C362.228 287.243 363.488 286.73 364.982 286.73C366.428 286.73 367.665 287.243 368.692 288.27C369.718 289.25 370.232 290.463 370.232 291.91C370.232 293.403 369.718 294.663 368.692 295.69C367.665 296.67 366.428 297.16 364.982 297.16ZM378.954 305.98H416.334V312.98H378.954V305.98ZM378.954 289.95H416.334V296.95H378.954V289.95ZM445.262 291H452.402L452.962 294.29C454.129 293.123 455.506 292.213 457.092 291.56C458.679 290.86 460.406 290.51 462.272 290.51C464.606 290.51 466.706 291 468.572 291.98C470.439 292.913 471.956 294.29 473.122 296.11C474.336 294.29 475.992 292.913 478.092 291.98C480.192 291 482.456 290.51 484.882 290.51C487.636 290.51 490.016 291.093 492.022 292.26C494.076 293.38 495.662 295.06 496.782 297.3C497.902 299.493 498.462 302.247 498.462 305.56V326H490.482V306.61C490.482 303.67 489.852 301.453 488.592 299.96C487.379 298.467 485.582 297.72 483.202 297.72C480.776 297.72 478.886 298.49 477.532 300.03C476.179 301.523 475.502 303.763 475.502 306.75V326H467.592V306.61C467.592 303.67 467.009 301.453 465.842 299.96C464.722 298.467 462.972 297.72 460.592 297.72C458.166 297.72 456.322 298.49 455.062 300.03C453.802 301.523 453.172 303.74 453.172 306.68V326H445.262V291ZM509.716 316.27H518.606L510.206 335.73H504.816L509.716 316.27ZM546.776 291H553.916L554.476 294.43C555.643 293.217 557.019 292.26 558.606 291.56C560.239 290.86 561.989 290.51 563.856 290.51C566.609 290.51 568.966 291.093 570.926 292.26C572.933 293.38 574.473 295.06 575.546 297.3C576.619 299.493 577.156 302.247 577.156 305.56V326H569.246V306.61C569.246 303.67 568.639 301.453 567.426 299.96C566.259 298.467 564.486 297.72 562.106 297.72C559.679 297.72 557.836 298.49 556.576 300.03C555.316 301.523 554.686 303.74 554.686 306.68V326H546.776V291Z" fill="black"/>
<path d="M265.98 619.16C269.7 619.16 272.82 619.52 275.34 620.24C277.86 620.92 279.74 622.04 280.98 623.6C282.26 625.16 282.9 627.26 282.9 629.9C282.9 631.54 282.62 633.02 282.06 634.34C281.5 635.66 280.68 636.74 279.6 637.58C278.56 638.42 277.26 638.98 275.7 639.26V639.56C277.3 639.84 278.72 640.36 279.96 641.12C281.24 641.84 282.24 642.9 282.96 644.3C283.72 645.66 284.1 647.46 284.1 649.7C284.1 652.3 283.48 654.52 282.24 656.36C281 658.2 279.22 659.6 276.9 660.56C274.62 661.52 271.9 662 268.74 662H253.08V619.16H265.98ZM267 636.62C270.04 636.62 272.12 636.14 273.24 635.18C274.4 634.22 274.98 632.8 274.98 630.92C274.98 629 274.3 627.62 272.94 626.78C271.58 625.94 269.4 625.52 266.4 625.52H260.76V636.62H267ZM260.76 642.8V655.58H267.72C270.84 655.58 273 654.98 274.2 653.78C275.44 652.58 276.06 650.98 276.06 648.98C276.06 647.7 275.8 646.6 275.28 645.68C274.76 644.76 273.86 644.06 272.58 643.58C271.3 643.06 269.56 642.8 267.36 642.8H260.76ZM320.044 637.88C320.044 639.72 319.464 641.24 318.304 642.44C317.184 643.64 315.584 644.42 313.504 644.78V645.02C315.704 645.3 317.504 646.06 318.904 647.3C320.344 648.5 321.064 650.18 321.064 652.34C321.064 653.74 320.784 655.04 320.224 656.24C319.704 657.4 318.884 658.42 317.764 659.3C316.684 660.14 315.264 660.8 313.504 661.28C311.744 661.76 309.624 662 307.144 662H292.204V629.48H307.084C309.564 629.48 311.764 629.74 313.684 630.26C315.644 630.78 317.184 631.66 318.304 632.9C319.464 634.1 320.044 635.76 320.044 637.88ZM313.204 652.04C313.204 650.56 312.624 649.5 311.464 648.86C310.344 648.18 308.644 647.84 306.364 647.84H299.764V656.54H306.544C308.584 656.54 310.204 656.2 311.404 655.52C312.604 654.84 313.204 653.68 313.204 652.04ZM312.364 638.54C312.364 637.34 311.904 636.46 310.984 635.9C310.064 635.34 308.664 635.06 306.784 635.06H299.764V642.38H305.764C307.924 642.38 309.564 642.08 310.684 641.48C311.804 640.88 312.364 639.9 312.364 638.54ZM341.846 628.88C344.766 628.88 347.266 629.48 349.346 630.68C351.466 631.84 353.106 633.52 354.266 635.72C355.426 637.88 356.006 640.52 356.006 643.64V647.48H334.526C334.606 650.44 335.426 652.74 336.986 654.38C338.546 655.98 340.706 656.78 343.466 656.78C345.586 656.78 347.466 656.58 349.106 656.18C350.786 655.74 352.506 655.12 354.266 654.32V660.38C352.666 661.14 351.006 661.7 349.286 662.06C347.566 662.42 345.506 662.6 343.106 662.6C339.946 662.6 337.126 662 334.646 660.8C332.206 659.56 330.286 657.7 328.886 655.22C327.526 652.74 326.846 649.66 326.846 645.98C326.846 642.26 327.466 639.14 328.706 636.62C329.986 634.06 331.746 632.14 333.986 630.86C336.226 629.54 338.846 628.88 341.846 628.88ZM341.846 634.46C339.846 634.46 338.206 635.12 336.926 636.44C335.686 637.72 334.946 639.64 334.706 642.2H348.686C348.686 640.68 348.426 639.34 347.906 638.18C347.426 637.02 346.686 636.12 345.686 635.48C344.686 634.8 343.406 634.46 341.846 634.46ZM390.99 629.48V656.24H395.73V673.52H388.77V662H366.63V673.52H359.73V656.24H362.43C364.03 653.92 365.37 651.32 366.45 648.44C367.53 645.52 368.37 642.44 368.97 639.2C369.57 635.96 369.97 632.72 370.17 629.48H390.99ZM376.59 635.24C376.35 637.76 375.95 640.28 375.39 642.8C374.83 645.28 374.13 647.66 373.29 649.94C372.45 652.22 371.45 654.32 370.29 656.24H383.49V635.24H376.59ZM414.678 628.88C417.598 628.88 420.098 629.48 422.178 630.68C424.298 631.84 425.938 633.52 427.098 635.72C428.258 637.88 428.838 640.52 428.838 643.64V647.48H407.358C407.438 650.44 408.258 652.74 409.818 654.38C411.378 655.98 413.538 656.78 416.298 656.78C418.418 656.78 420.298 656.58 421.938 656.18C423.618 655.74 425.338 655.12 427.098 654.32V660.38C425.498 661.14 423.838 661.7 422.118 662.06C420.398 662.42 418.338 662.6 415.938 662.6C412.778 662.6 409.958 662 407.478 660.8C405.038 659.56 403.118 657.7 401.718 655.22C400.358 652.74 399.678 649.66 399.678 645.98C399.678 642.26 400.298 639.14 401.538 636.62C402.818 634.06 404.578 632.14 406.818 630.86C409.058 629.54 411.678 628.88 414.678 628.88ZM414.678 634.46C412.678 634.46 411.038 635.12 409.758 636.44C408.518 637.72 407.778 639.64 407.538 642.2H421.518C421.518 640.68 421.258 639.34 420.738 638.18C420.258 637.02 419.518 636.12 418.518 635.48C417.518 634.8 416.238 634.46 414.678 634.46ZM444.022 629.48V642.38H458.362V629.48H465.922V662H458.362V648.2H444.022V662H436.462V629.48H444.022ZM483.221 629.48V642.38H497.561V629.48H505.121V662H497.561V648.2H483.221V662H475.661V629.48H483.221ZM518.7 662H510.36L519.3 648.86C518.14 648.42 517.04 647.82 516 647.06C514.96 646.26 514.12 645.24 513.48 644C512.84 642.72 512.52 641.18 512.52 639.38C512.52 636.18 513.68 633.74 516 632.06C518.32 630.34 521.34 629.48 525.06 629.48H540V662H532.44V649.58H526.38L518.7 662ZM519.9 639.44C519.9 640.96 520.48 642.14 521.64 642.98C522.84 643.78 524.44 644.18 526.44 644.18H532.44V635.06H525.36C523.44 635.06 522.04 635.48 521.16 636.32C520.32 637.16 519.9 638.2 519.9 639.44ZM583.521 662L582.921 658.34C581.961 659.62 580.821 660.6 579.501 661.28C578.181 661.96 576.421 662.3 574.221 662.3C572.141 662.3 570.341 661.96 568.821 661.28C567.301 660.56 566.121 659.58 565.281 658.34C564.481 657.06 564.081 655.58 564.081 653.9C564.081 651.38 565.001 649.28 566.841 647.6C568.721 645.88 571.461 644.82 575.061 644.42L582.921 643.58V641.24C582.921 640.28 582.501 639.42 581.661 638.66C580.821 637.86 579.481 637.46 577.641 637.46C576.041 637.46 574.641 637.86 573.441 638.66C572.281 639.42 571.501 640.58 571.101 642.14L565.221 639.98C565.981 637.34 567.481 635.28 569.721 633.8C572.001 632.32 574.761 631.58 578.001 631.58C581.921 631.58 584.861 632.56 586.821 634.52C588.781 636.48 589.761 638.98 589.761 642.02V662H583.521ZM582.921 648.8L575.721 649.7C574.201 649.9 573.061 650.34 572.301 651.02C571.541 651.66 571.161 652.48 571.161 653.48C571.161 654.4 571.521 655.2 572.241 655.88C573.001 656.52 574.021 656.84 575.301 656.84C576.941 656.84 578.321 656.54 579.441 655.94C580.601 655.34 581.461 654.48 582.021 653.36C582.621 652.24 582.921 650.86 582.921 649.22V648.8ZM597.462 614H610.362V619.88H604.122V662.06H610.362V668H597.462V614ZM617.988 632H624.768V662H617.988V632ZM621.408 627.44C620.168 627.44 619.128 627.02 618.288 626.18C617.448 625.34 617.028 624.34 617.028 623.18C617.028 621.94 617.448 620.9 618.288 620.06C619.128 619.22 620.168 618.8 621.408 618.8C622.608 618.8 623.628 619.22 624.468 620.06C625.308 620.9 625.728 621.94 625.728 623.18C625.728 624.34 625.308 625.34 624.468 626.18C623.628 627.02 622.608 627.44 621.408 627.44ZM645.307 614V668H632.347V662.06H638.587V619.88H632.347V614H645.307Z" fill="black"/>
<path d="M842.228 285H835.316V264.136H813.492V285H806.58V239.304H813.492V258.248H835.316V239.304H842.228V285ZM860.471 250.504V285H853.687V250.504H860.471ZM857.143 237.384C858.167 237.384 859.063 237.683 859.831 238.28C860.599 238.877 860.983 239.88 860.983 241.288C860.983 242.653 860.599 243.656 859.831 244.296C859.063 244.893 858.167 245.192 857.143 245.192C856.034 245.192 855.095 244.893 854.327 244.296C853.602 243.656 853.239 242.653 853.239 241.288C853.239 239.88 853.602 238.877 854.327 238.28C855.095 237.683 856.034 237.384 857.143 237.384Z" fill="black"/>
<path d="M341.94 482H335.028V442.256H321.332V436.304H355.636V442.256H341.94V482ZM370.126 446.864C374.478 446.864 377.72 447.824 379.854 449.744C381.987 451.621 383.054 454.587 383.054 458.64V482H378.254L376.91 477.2H376.654C375.672 478.437 374.648 479.461 373.582 480.272C372.558 481.083 371.363 481.68 369.998 482.064C368.675 482.448 367.054 482.64 365.134 482.64C363.086 482.64 361.23 482.277 359.566 481.552C357.944 480.784 356.664 479.632 355.726 478.096C354.787 476.517 354.318 474.555 354.318 472.208C354.318 468.709 355.64 466.043 358.286 464.208C360.974 462.373 365.048 461.371 370.51 461.2L376.398 461.008V459.088C376.398 456.528 375.822 454.736 374.67 453.712C373.518 452.688 371.896 452.176 369.806 452.176C368.014 452.176 366.307 452.432 364.686 452.944C363.064 453.456 361.528 454.075 360.078 454.8L357.902 449.872C359.523 449.019 361.379 448.315 363.47 447.76C365.603 447.163 367.822 446.864 370.126 446.864ZM371.726 465.552C367.8 465.723 365.07 466.384 363.534 467.536C362.04 468.645 361.294 470.224 361.294 472.272C361.294 474.064 361.827 475.365 362.894 476.176C364.003 476.987 365.39 477.392 367.054 477.392C369.742 477.392 371.96 476.645 373.71 475.152C375.459 473.659 376.334 471.419 376.334 468.432V465.424L371.726 465.552ZM414.556 447.504H421.979L407.58 464.08L423.196 482H415.388L400.284 464.528V482H393.5V447.504H400.284V464.272L414.556 447.504Z" fill="black"/>
<path d="M726.718 574.5L656.573 708.5H170.282L240.427 574.5H726.718Z" stroke="#4472C5" stroke-width="7"/>
<path d="M120.499 301.5L80.4987 278.406L80.4988 324.594L120.499 301.5ZM447.822 803.5L447.822 807.5L451.792 807.5L451.822 803.53L447.822 803.5ZM4.00831 803.5L0.00832527 803.5L0.00838387 807.5L4.00831 807.5L4.00831 803.5ZM3.99966 301.5L3.99966 297.5L-0.000416654 297.5L-0.000328185 301.5L3.99966 301.5ZM448.511 712.02L444.511 711.99L443.822 803.47L447.822 803.5L451.822 803.53L452.511 712.05L448.511 712.02ZM447.822 803.5L447.822 799.5L4.00832 799.5L4.00831 803.5L4.00831 807.5L447.822 807.5L447.822 803.5ZM4.00831 803.5L8.0083 803.5L7.99965 301.5L3.99966 301.5L-0.000328185 301.5L0.00832527 803.5L4.00831 803.5ZM3.99966 301.5L3.99966 305.5L84.4987 305.5L84.4987 301.5L84.4987 297.5L3.99966 297.5L3.99966 301.5Z" fill="#4472C5"/>
<path d="M448 988L471.094 948L424.906 948L448 988ZM910.761 302.341L914.761 302.341L914.761 298.341L910.761 298.341L910.761 302.341ZM910.77 863.343L910.77 867.343L914.77 867.343L914.77 863.343L910.77 863.343ZM448 863.341L448 859.341L444 859.341L444 863.341L448 863.341ZM743.956 302.342L743.956 306.342L910.761 306.341L910.761 302.341L910.761 298.341L743.956 298.342L743.956 302.342ZM910.761 302.341L906.761 302.341L906.77 863.343L910.77 863.343L914.77 863.343L914.761 302.341L910.761 302.341ZM910.77 863.343L910.77 859.343L448 859.341L448 863.341L448 867.341L910.77 867.343L910.77 863.343ZM448 863.341L444 863.341L444 952L448 952L452 952L452 863.341L448 863.341Z" fill="#4472C5"/>
</svg>
